# xmcd
#
# Track frame offsets:
#	150
#	15285
#	28852
#	42215
#	54334
#	67984
#	82604
#	98232
#	114218
#	127708
#	145919
#	162408
#	176856
#	194226
#	210406
#	227152
#	240332
#
# Disc length: 3439 seconds
#
# Revision: 0
# Processed by: cddbd v1.5.2PL0 Copyright (c) Steve Scherf et al.
# Submitted via: dBpowerAMP V4.0
#
DISCID=d30d6d11
DTITLE=Fernando and Sorocaba - Vendaval
DYEAR=1900
DGENRE=sertanejo
TTITLE0=Paga Pau
TTITLE1=Da Cor do Pecado
TTITLE2=Força de um furacão
TTITLE3=Chevetão
TTITLE4=Vítimas de amor
TTITLE5=Vendaval
TTITLE6=Que raiva que dá
TTITLE7=Um quadro
TTITLE8=Estrela solitária
TTITLE9=Consequencias de te amar
TTITLE10=Maquina do tempo
TTITLE11=O mundo avisou
TTITLE12=Brilho no olhar
TTITLE13=Você é mais
TTITLE14=100% você
TTITLE15=Livre pro amor
TTITLE16=Bala de prata (acústico)
EXTD=Fernando and Sorocaba - Vendaval
EXTT0=
EXTT1=
EXTT2=
EXTT3=
EXTT4=
EXTT5=
EXTT6=
EXTT7=
EXTT8=
EXTT9=
EXTT10=
EXTT11=
EXTT12=
EXTT13=
EXTT14=
EXTT15=
EXTT16=
PLAYORDER=
